<?xml version="1.0" encoding="UTF-8"?>
<svg id="_레이어_1" data-name="레이어 1" xmlns="http://www.w3.org/2000/svg" viewBox="0 0 530.14 624.81">
  <defs>
    <style>
      .cls-1 {
        stroke-width: .75px;
      }

      .cls-1, .cls-2 {
        fill: none;
        stroke: #231815;
        stroke-miterlimit: 10;
      }
    </style>
  </defs>
  <path class="cls-2" d="M230.14,143c-2.8-13.21-2.14-66.52,50.04-81.61s101.56,44.46,112.4,91.98"/>
  <path class="cls-2" d="M219.59,176.57c2.17-23.13,14.3-55.87,63.4-76.33s80.33-6.45,98.8,30.76"/>
  <path class="cls-2" d="M203.11,211.75c4.6-16.34,24.88-74.78,94-73,64.78,1.67,82.71,63.11,78.29,97.92"/>
  <path class="cls-2" d="M214.38,342.49c4.4-30.81,7-138.39-28.21-146.05s-78.59,69.79-85.5,105.62"/>
  <path class="cls-2" d="M196.85,411.13c-2.56-64.72,36.87-109.07,92.31-94.61s72.41,72.3,40.35,114.42"/>
  <path class="cls-2" d="M183.37,443.77s8.15-49.19,43.16-48.59,54.56,104.11,32.98,161.13"/>
  <path class="cls-2" d="M162,482.74c.26-8.48,4.07-36.4,32.96-43.31,29.11-6.11,76.35,16.7,78.38,119.32"/>
  <path class="cls-2" d="M174.31,520.57c.51-12.78-9.54-42.95-27.2-53.04s-36.1,6.8-40.21,12.69"/>
  <path class="cls-2" d="M212.07,522.44c-5.26-.16-33.28.6-44.19,8.42-11.27,8.09-6.79,15.15-1.78,20.94"/>
  <path class="cls-2" d="M134.2,563.5c10.04-13.39,46.66-14.83,60.26-7.2"/>
  <path class="cls-2" d="M190.31,523.86c-11.79-6.69-22.62-4.33-19.49,5.19"/>
  <circle class="cls-1" cx="382.17" cy="132.07" r="1.34"/>
  <circle class="cls-1" cx="392.83" cy="154.51" r="1.34"/>
  <circle class="cls-1" cx="374.91" cy="237.59" r="1.34"/>
  <circle class="cls-1" cx="100.31" cy="303.03" r="1.34"/>
  <circle class="cls-1" cx="328.83" cy="431.82" r="1.34"/>
  <circle class="cls-1" cx="273.35" cy="559.81" r="1.34"/>
  <circle class="cls-1" cx="258.99" cy="557.14" r="1.34"/>
  <circle class="cls-1" cx="213.08" cy="522.6" r="1.34"/>
  <circle class="cls-1" cx="195.39" cy="556.73" r="1.34"/>
  <circle class="cls-1" cx="133.31" cy="564.43" r="1.34"/>
  <circle class="cls-1" cx="106.25" cy="481.37" r="1.34"/>
</svg>