<?xml version="1.0" encoding="UTF-8"?>
<svg id="_레이어_7" data-name="레이어 7" xmlns="http://www.w3.org/2000/svg" viewBox="0 0 1598.04 1027.92">
  <defs>
    <style>
      .cls-1 {
        fill: none;
        stroke: #231815;
        stroke-miterlimit: 10;
        stroke-width: 2px;
      }
    </style>
  </defs>
  <path class="cls-1" d="M784.28,214.82c9.57-21.93,26.26-42.24,55.87-42.24s44.92,30.17,40.79,50.43c-4.13,20.26-17.95,33.81-34.85,32.32-15.23-1.34-28.33-19.1-26.61-33.56s16.37-23.92,33.76-24.41c18.42-.52,33.24,8.48,40.11,26.7s6.16,64.25,3.04,77.79c-1.4,6.07-5.45,10.69-8.94,11.72-4.3,1.27-8.65-2.64-8.56-6.47s3.01-9.38,9.11-9.75,6.02,8.02,6.14,13.44-3.86,17.36-3.86,17.36c0,0-4.6-1.83-10.38-.39s-10.59,5.92-17.33,12.2-24.99,3.2-25.14,3.58,11.95,5.04,11.95,5.04c-2.2,2.37-11.2,1.36-11.22,1.99s6.97,1.59,12.28,5.31,12.34,9.32,20.63,10.7,16.23.87,16.23.87c0,0,2.48,7.94-4.84,16.77s-18.24,11.64-30.51,7.97"/>
  <path class="cls-1" d="M1016.73,227.74c.81-20.12-15.02-51.64-38.23-57.96s-51.09,4.63-60.25,27.57,6.12,50.92,28.18,54.97c22.06,4.05,36.17-3.17,38.34-24.12,2.17-20.95-11.3-36.14-30.08-35.2s-32.24,9.13-42.09,35.2-7.44,53.09-4.4,68.01,8.71,19.6,13.5,17.04,3.32-14.04-3.64-15-9.89,2.29-11.28,7.01,1.95,22.49,3.6,23.72,1.29-3.65,9.25-2.62c4.5.58,19.15,8.59,29.9,12.61,11.59,4.33,23.97,2.57,24.06,3.45s-27.26,3.17-27.17,4.17c.05.5,4.72,1.86,7.62,2.32,4.22.67,9.37.38,9.42.77.06.41-25.69,6.74-32.64,7.88s-18.8,6.92-18.8,6.92c-1.6,5.25-1.71,16.23,4.03,22.89s16.97,10.73,41,7.5"/>
</svg>